<svg width="162" height="43" viewBox="0 0 162 43" fill="none" xmlns="http://www.w3.org/2000/svg">
<path d="M81.9434 26.2819C81.9434 30.117 80.6018 32.4112 77.9583 34.7097C75.367 36.959 71.3537 37.6927 67.6046 37.6927C65.6621 37.6927 63.8517 37.3789 62.1697 36.7515C62.0533 36.7105 61.9374 36.6657 61.8254 36.6209C61.6971 36.5678 61.5692 36.5147 61.4409 36.4577C61.3169 36.4046 61.1967 36.3476 61.0722 36.2867L60.9363 36.4699L59.983 37.7619L59.4184 38.5238C59.2341 38.7806 58.8458 38.7114 58.7534 38.4098L58.581 37.7619L55.7733 27.0317C55.7134 26.791 55.8853 26.5591 56.13 26.547L60.9281 26.433L67.6932 26.2741C68.0015 26.2741 68.182 26.6371 67.9934 26.8934L65.7823 29.8929C65.9264 29.9217 66.0667 29.9499 66.2189 29.9743H66.2228C66.3271 29.9904 66.4349 30.0069 66.5431 30.0191C66.5871 30.023 66.6312 30.0313 66.6791 30.0313C68.4693 30.2271 70.4401 29.6888 71.3292 27.953C71.81 27.0156 71.8339 25.8255 71.3053 24.913C70.2318 23.0627 67.5443 22.195 65.742 21.4613C64.0782 20.7841 62.6906 20.1069 62.0394 19.6587C61.8493 19.5282 61.7368 19.3089 61.7368 19.0751V18.812C61.7368 15.336 62.4938 12.8703 63.992 11.4804C64.241 11.2485 64.5139 11.0434 64.8103 10.8656C65.2077 10.6278 65.7133 10.7574 65.97 11.1472C67.2086 13.0262 71.289 15.222 72.4391 15.6819C74.8461 16.6436 77.5097 17.7197 79.4244 19.5574C79.6327 19.7532 79.8252 19.9608 80.0014 20.1849C81.2913 21.8393 81.9439 23.8894 81.9439 26.2815L81.9434 26.2819Z" fill="#31A050"/>
<path d="M81.2683 12.6496C81.3042 12.8981 81.1002 13.1144 80.8556 13.094L69.753 11.9934C69.4365 11.9647 69.2924 11.5779 69.5126 11.3416L71.4633 9.25497C71.6074 9.08787 71.5835 8.83941 71.4274 8.70495L71.4394 8.69277C66.8601 6.36112 61.474 9.72169 60.3354 14.5058C59.9897 15.9586 59.8479 17.4435 59.8479 18.9382V19.4638C59.8441 19.476 59.8441 19.4926 59.8441 19.5048C59.836 20.483 59.8159 21.4652 59.8202 22.3085C59.824 22.9033 59.8283 23.7959 59.8321 24.55C59.836 24.7619 59.6679 24.9329 59.4634 24.9373L54.5408 25.0557L54.0041 25.0679C53.7599 25.0801 53.5837 25.3125 53.6517 25.557L53.7877 26.0788L56.5394 36.5848C56.6035 36.8333 56.423 37.074 56.1707 37.074H52.5538C52.1583 37.074 51.8375 36.7476 51.8375 36.3451V1.54923C51.8375 1.13708 52.166 0.802874 52.571 0.802874C52.571 0.802874 59.01 0.802874 59.0186 0.802874C59.8001 0.802874 59.8293 1.55508 59.8791 2.1436C59.8877 2.24639 59.9025 2.36137 59.9825 2.4247C60.1027 2.5197 60.2745 2.4359 60.4019 2.35162C61.6487 1.52585 62.7993 0.816028 64.2611 0.45795C65.7698 0.0881797 67.3374 0.00389745 68.884 0H68.9079C71.8545 0 74.3907 1.17411 76.8125 2.77255C76.9552 2.86657 77.1175 2.96498 77.2846 2.93137C77.4374 2.90067 77.547 2.76767 77.6428 2.64247C78.0905 2.05736 78.462 1.34218 78.9614 0.806284C79.1817 0.570001 79.5705 0.696181 79.6145 1.01821L81.2688 12.6492L81.2683 12.6496Z" fill="#31A050"/>
<path d="M45.8405 28.0181H31.6265C31.9424 30.6566 33.427 32.0573 35.9223 32.0573C37.1858 32.0573 38.2913 31.6339 39.1125 30.8521C39.5863 30.396 39.8074 30.0377 40.0601 29.1908L45.5562 30.7869C44.8297 32.4808 44.3559 33.23 43.4715 34.1421C41.6711 35.9663 39.1441 36.9109 36.0171 36.9109C32.9216 36.9109 30.4894 35.9988 28.689 34.1421C26.8254 32.1876 25.8146 29.4188 25.8146 26.1939C25.8146 19.7442 29.8261 15.4769 35.8591 15.4769C40.7866 15.4769 44.2296 18.2458 45.3351 23.0993C45.5878 24.1417 45.7141 25.5099 45.8089 27.3666C45.8089 27.4969 45.8089 27.6923 45.8405 28.0181ZM31.7213 23.5228H39.839C39.3968 21.4381 38.0386 20.3305 35.8591 20.3305C33.6165 20.3305 32.2583 21.3729 31.7213 23.5228Z" fill="#31A050"/>
<path d="M23.3425 36.1291H15.9512C15.7617 35.0868 15.3827 33.7512 14.4035 31.0475C13.3927 28.2135 13.0137 27.4643 12.224 26.7477C11.5607 26.1288 10.771 25.8682 9.76024 25.8682H6.53842V31.2104C6.53842 33.4255 6.60159 34.6307 6.79111 36.1291H0C0.189519 34.6307 0.252692 33.6535 0.252692 31.243V13.7179C0.252692 11.6983 0.189519 10.493 0 8.92947C1.38981 8.99462 2.55851 9.02719 4.7064 9.02719H12.9189C18.0359 9.02719 21.0051 11.7634 21.0051 16.4542C21.0051 18.767 20.3733 20.5911 19.1415 21.7964C18.3518 22.5456 17.6885 22.9039 16.1407 23.4251C17.7516 23.9463 18.4781 24.6955 19.4889 27.0083C19.9627 28.0507 20.4049 29.1582 21.8263 32.6762C22.1738 33.5883 22.5528 34.4027 23.3425 36.1291ZM6.53842 20.2979H11.4659C13.3295 20.2979 14.4666 19.1253 14.4666 17.2685C14.4666 15.4444 13.4559 14.4997 11.4975 14.4997H6.53842V20.2979Z" fill="#31A050"/>
<path d="M146.586 42.0251H140.111C140.268 40.6244 140.363 38.9957 140.363 37.2692V21.3729C140.363 19.2556 140.3 17.92 140.111 16.2587H146.333V17.3662C146.333 17.5617 146.301 17.8223 146.301 17.9852C148.197 16.3564 150.155 15.6724 152.777 15.6724C155.556 15.6724 157.831 16.5193 159.473 18.1806C161.147 19.9071 162 22.4804 162 25.7705C162 29.093 161.052 31.7967 159.252 33.6535C157.641 35.3148 155.335 36.2269 152.745 36.2269C151.261 36.2269 149.65 35.9011 148.481 35.3799C147.66 35.0216 147.186 34.6633 146.301 33.8815C146.301 34.1747 146.301 34.5981 146.333 35.0542V37.3018C146.333 39.126 146.396 40.6244 146.586 42.0251ZM151.355 31.3081C152.556 31.3081 153.63 30.8846 154.451 30.0703C155.335 29.1908 155.841 27.6923 155.841 25.8356C155.841 22.513 154.135 20.5911 151.166 20.5911C148.544 20.5911 146.396 22.9691 146.396 25.9333C146.396 28.9953 148.513 31.3081 151.355 31.3081Z" fill="#31A050"/>
<path d="M129.682 23.2622V22.513C129.682 20.9494 128.766 20.2328 126.681 20.2328C124.659 20.2328 123.585 20.9169 123.112 22.513L117.079 21.5032C117.71 19.5813 118.405 18.5389 119.732 17.5617C121.437 16.3239 123.775 15.705 126.839 15.705C129.176 15.705 131.45 16.161 132.682 16.8451C134.704 17.9852 135.588 19.7768 135.588 22.7085V31.5036C135.588 33.4906 135.651 34.6633 135.809 36.1291H129.682V34.6307C127.913 36.0314 126.144 36.5852 123.554 36.5852C121.153 36.5852 119.353 35.9988 118.089 34.7936C116.952 33.7186 116.352 32.1551 116.352 30.3635C116.352 28.3113 117.142 26.6825 118.658 25.6076C120.269 24.4349 122.385 23.7508 125.228 23.4902C126.46 23.36 127.407 23.3274 129.682 23.2622ZM129.682 28.3438V27.4318C126.87 27.4969 125.512 27.6598 124.217 28.0832C123.08 28.4741 122.385 29.2885 122.385 30.2332C122.385 31.4058 123.333 32.0899 124.975 32.0899C126.27 32.0899 127.692 31.6013 128.544 30.8521C129.271 30.2006 129.682 29.3211 129.682 28.3438Z" fill="#31A050"/>
<path d="M108.31 36.1291H102.941C102.783 35.1845 102.53 34.2072 101.961 32.3179L100.035 25.803C99.8767 25.2493 99.7503 24.8258 99.6871 24.5326C99.466 25.2818 99.466 25.347 99.3081 25.803L97.3813 32.3179C96.9391 33.7512 96.5285 35.3473 96.4021 36.1291H91.0324C90.8113 34.9564 90.5902 34.0769 90.0848 32.3179L86.5471 20.4934C86.1997 19.3533 85.7259 17.92 85.1257 16.2587H91.9168C91.98 17.3988 92.1695 18.5715 92.517 20.1025L93.8752 25.9333C94.0331 26.7151 94.1595 27.2363 94.1911 27.4969C94.5701 26.2265 94.5701 26.2265 94.6333 25.9333L96.4021 20.0048C97.255 16.9428 97.255 16.9428 97.3813 16.2587H101.993C102.088 16.9102 102.467 18.4738 102.941 20.0048L104.773 26.1614C104.836 26.3894 105.025 27.106 105.152 27.4969C105.246 27.0083 105.246 27.0083 105.436 26.1288L106.763 20.3631C107.142 18.6692 107.363 17.3011 107.426 16.2587H114.217C113.743 17.4965 113.269 18.9624 112.796 20.4934L109.258 32.3179C108.689 34.2072 108.5 35.0216 108.31 36.1291Z" fill="#31A050"/>
</svg>
